<svg width="512" height="512" viewBox="0 0 512 512" fill="none" xmlns="http://www.w3.org/2000/svg">
<g clip-path="url(#clip0_1_2)">
<path d="M132.08 394.16C132.08 394.16 122.48 308.48 134.08 258.8C145.68 209.12 157.44 185.84 177.44 170.8C190.261 161.473 204.57 154.386 219.76 149.84C219.76 149.84 206.8 107.2 200.8 105.52C194.8 103.84 172.48 110.8 163.12 104.16C153.76 97.52 139.12 80.16 137.44 81.52C135.76 82.88 133.76 89.52 131.44 90.8C124.436 92.0221 117.225 91.0439 110.8 88C106.08 84.96 101.44 80.64 108.48 75.68C118.274 70.3959 129.388 68.0618 140.48 68.96C146.48 70.64 169.44 93.36 173.12 92.96C176.8 92.56 204.48 84.96 213.12 96.96C221.76 108.96 233.76 144.96 233.76 144.96C240.516 143.184 247.55 142.723 254.48 143.6C261.656 143.914 268.783 144.932 275.76 146.64C275.76 146.64 278.48 118.96 268.16 114.64C257.84 110.32 246.16 113.68 244.8 101.68C243.44 89.68 238.8 77.68 235.44 77.68C232.08 77.68 229.44 80.32 223.12 80.96C219.361 80.8569 215.659 80.0123 212.226 78.4747C208.794 76.9371 205.7 74.7368 203.12 72C202.08 68.64 206.48 58 222.48 56C238.48 54 258.08 72 259.12 82C260.16 92 259.12 98 260.08 98.64C261.04 99.28 289.76 106.64 292.08 122.64C292.73 131.962 292.73 141.318 292.08 150.64C293.12 150.64 342.08 154.96 365.76 230.64C379.979 276.799 383.964 325.503 377.44 373.36C385.952 376.125 393.402 381.451 398.772 388.611C404.142 395.771 407.169 404.414 407.44 413.36C407.44 444.32 376.8 457.68 352.08 453.36C327.36 449.04 302.8 443.68 284.4 446.32C266 448.96 253.76 458 237.76 456.32C221.76 454.64 192 438.8 167.44 444.8C142.88 450.8 120.8 455.2 111.44 438.8C109.427 434.561 108.371 429.93 108.347 425.238C108.323 420.545 109.332 415.904 111.301 411.644C113.271 407.384 116.153 403.61 119.744 400.589C123.335 397.567 127.546 395.372 132.08 394.16Z" fill="#1D1D1B"/>
<path d="M128 408.8C134.48 403.76 151.04 403.84 151.36 401.52C144.44 365.394 142.529 328.487 145.68 291.84C151.68 232.8 162.32 198.8 191.68 177.52C221.04 156.24 255.68 158.16 285.04 162.8C314.4 167.44 344 198.8 355.44 244.8C366.88 290.8 358.8 382.48 360.08 383.52C361.36 384.56 387.12 387.84 388.08 410.48C389.04 433.12 376.48 446.48 352.48 440.8C330.49 435.229 307.729 433.336 285.12 435.2C255.12 436.48 249.76 443.2 232.8 441.52C215.84 439.84 207.12 425.52 176.08 430.16C145.04 434.8 132.08 440.16 128.08 435.2C124.08 430.24 117.12 417.2 128 408.8Z" fill="#C8DB89"/>
<path d="M135.44 421.52C137.73 419.423 140.419 417.811 143.347 416.78C146.276 415.749 149.382 415.321 152.48 415.52C158.48 416.16 167.44 417.52 166.8 420.48C166.16 423.44 166.8 424.8 163.44 424.8C160.08 424.8 154.8 420.48 148.8 423.52C142.8 426.56 139.44 429.2 137.76 428.8C136.588 428.045 135.715 426.906 135.291 425.577C134.868 424.248 134.921 422.814 135.44 421.52Z" fill="#1D1D1B"/>
<path d="M222.8 416.8C225.12 417.28 230.8 424.8 237.76 424.8C244.72 424.8 254.8 422.48 255.44 424.8C256.08 427.12 257.44 432.16 255.44 432.8C247.775 433.832 239.983 433.397 232.48 431.52C227.76 429.2 218.8 425.84 218.48 423.52C218.16 421.2 221.12 416.48 222.8 416.8Z" fill="#1D1D1B"/>
<path d="M335.44 421.52C343.112 420.642 350.869 420.858 358.48 422.16C368.48 423.84 369.44 424.16 369.44 425.84C369.44 427.52 368 432 366.8 432C360.642 430.464 354.388 429.342 348.08 428.64C342.08 428.64 340.8 429.68 337.44 428.64C334.08 427.6 334.48 422.16 335.44 421.52Z" fill="#1D1D1B"/>
<path d="M282.48 388.8C284.96 388.8 300.08 409.84 298.08 410.8C295.485 411.605 292.795 412.062 290.08 412.16C290.08 412.16 276.8 391.52 276.8 390.16C276.8 388.8 280 389.2 282.48 388.8Z" fill="#1D1D1B"/>
<path d="M299.44 387.52C298.8 384.88 304.08 387.52 306.08 388.48C310.678 395.339 314.186 402.868 316.48 410.8C315.12 410.8 310.8 411.84 309.44 410.8C305.661 403.239 302.322 395.466 299.44 387.52Z" fill="#1D1D1B"/>
<path d="M317.44 386.48C316.4 383.28 323.44 384.48 324.08 385.2C328.01 391.022 331.258 397.276 333.76 403.84C332.986 404.603 332.014 405.134 330.954 405.374C329.894 405.614 328.788 405.554 327.76 405.2C323.996 399.144 320.552 392.895 317.44 386.48Z" fill="#1D1D1B"/>
<path d="M331.12 379.52C331.12 379.52 334.08 376.16 336.08 377.52C342.599 383.577 348.228 390.526 352.8 398.16C352.08 400.16 348.08 401.52 348.08 401.52C341.888 394.619 336.219 387.265 331.12 379.52Z" fill="#1D1D1B"/>
<path d="M338.8 363.52C337.6 363.52 340.8 357.52 342.48 359.2C347.362 363.969 351.611 369.346 355.12 375.2C355.12 377.6 355.76 380.88 355.12 380.88C354.48 380.88 340.08 363.84 338.8 363.52Z" fill="#1D1D1B"/>
<path d="M169.44 234.48C168.48 233.52 171.12 225.52 176.48 212.16C181.84 198.8 185.12 194.16 187.76 193.2C190.4 192.24 194.08 193.2 193.76 194.48C193.44 195.76 183.76 211.84 180.8 218.48C179.14 223.704 177.909 229.055 177.12 234.48C176 235.52 170.08 235.2 169.44 234.48Z" fill="#1D1D1B"/>
<path d="M209.04 254.16C219.44 240.8 235.04 238.8 262.64 238.16C290.24 237.52 314.4 251.52 318 290.48C321.6 329.44 294.96 351.2 251.52 347.52C208.08 343.84 196.8 312.48 194.16 297.84C191.52 283.2 200 265.84 209.04 254.16Z" fill="#1D1D1B"/>
<path d="M261.6 252.48C266.913 252.156 272.236 252.896 277.26 254.656C282.283 256.416 286.904 259.161 290.853 262.73C294.801 266.299 297.998 270.62 300.256 275.44C302.513 280.26 303.786 285.482 304 290.8C305.44 321.2 277.6 336.8 249.36 333.84C238.844 332.387 229.196 327.215 222.166 319.26C215.136 311.305 211.189 301.095 211.04 290.48C210.64 277.2 220.88 253.52 261.6 252.48Z" fill="#CBE7F5"/>
<path d="M249.76 279.2C252.53 277.743 255.611 276.976 258.741 276.965C261.871 276.954 264.957 277.699 267.737 279.136C270.517 280.573 272.91 282.661 274.71 285.221C276.511 287.781 277.667 290.738 278.08 293.84C280.08 309.84 255.76 317.84 245.12 306.8C242.886 305.02 241.17 302.675 240.148 300.008C239.127 297.342 238.838 294.45 239.311 291.633C239.785 288.817 241.004 286.179 242.841 283.992C244.678 281.806 247.067 280.151 249.76 279.2Z" fill="#1D1D1B"/>
</g>
<defs>
<clipPath id="clip0_1_2">
<rect width="512" height="512" fill="white"/>
</clipPath>
</defs>
</svg>
